<svg xmlns="http://www.w3.org/2000/svg" xmlns:xlink="http://www.w3.org/1999/xlink" width="500" zoomAndPan="magnify" viewBox="0 0 375 374.999991" height="500" preserveAspectRatio="xMidYMid meet" version="1.0"><defs><g/><clipPath id="416b4e3801"><path d="M 151 125 L 224 125 L 224 254.394531 L 151 254.394531 Z M 151 125 " clip-rule="nonzero"/></clipPath><clipPath id="103db5b604"><path d="M 150 66.894531 L 225 66.894531 L 225 134 L 150 134 Z M 150 66.894531 " clip-rule="nonzero"/></clipPath></defs><g clip-path="url(#416b4e3801)"><path fill="#ffca00" d="M 215.65625 128.007812 L 196.613281 157.132812 C 195.570312 158.695312 194.789062 158.175781 180.703125 158.175781 C 178.875 158.175781 180.179688 159.214844 159.3125 128.007812 C 156.179688 123.066406 148.875 127.746094 151.746094 132.6875 C 170.789062 165.457031 173.136719 167.796875 173.136719 177.679688 C 173.136719 214.347656 173.660156 208.625 163.484375 247.113281 C 161.660156 254.132812 172.355469 257.515625 174.441406 250.492188 L 186.960938 212.527344 L 188.007812 212.527344 L 200.527344 250.492188 C 202.875 257.515625 213.570312 254.394531 211.484375 247.113281 C 205.222656 223.1875 201.832031 213.824219 201.832031 196.921875 C 201.832031 164.15625 198.960938 174.816406 223.222656 132.429688 C 224.265625 130.609375 224.003906 128.269531 222.441406 126.96875 C 220.613281 125.40625 217.222656 125.667969 215.65625 128.007812 Z M 215.65625 128.007812 " fill-opacity="1" fill-rule="nonzero"/></g><path fill="#ffca00" d="M 187.484375 127.488281 C 182.527344 127.488281 178.355469 132.949219 178.355469 139.96875 C 178.355469 146.992188 182.527344 152.453125 187.484375 152.453125 C 192.441406 152.453125 196.613281 146.992188 196.613281 139.96875 C 196.613281 132.949219 192.441406 127.488281 187.484375 127.488281 Z M 187.484375 127.488281 " fill-opacity="1" fill-rule="nonzero"/><g clip-path="url(#103db5b604)"><path fill="#ffca00" d="M 172.613281 128.789062 L 187.746094 118.125 L 184.355469 113.183594 C 184.875 112.664062 185.136719 111.882812 184.613281 111.363281 L 184.09375 110.582031 C 185.398438 106.683594 189.308594 102.78125 194.003906 99.140625 C 200.003906 104.601562 212.265625 103.824219 220.351562 98.621094 C 220.875 99.402344 222.179688 99.660156 223.222656 99.140625 L 224.527344 98.101562 L 202.09375 66.894531 L 200.789062 67.933594 C 200.003906 68.453125 199.746094 69.753906 200.265625 70.796875 C 192.703125 77.035156 188.007812 87.960938 191.398438 95.5 C 186.441406 98.882812 181.484375 101.222656 177.308594 101.222656 L 176.789062 100.441406 C 176.265625 99.921875 175.484375 99.660156 174.960938 100.183594 L 171.570312 95.5 L 156.441406 106.164062 C 154.875 104.082031 153.050781 106.164062 150.441406 107.984375 L 169.222656 133.988281 C 171.570312 132.167969 174.179688 130.867188 172.613281 128.789062 Z M 172.613281 128.789062 " fill-opacity="1" fill-rule="nonzero"/></g><path fill="#ffca00" d="M 173.660156 90.300781 L 177.050781 85.878906 L 182.527344 87.699219 L 179.136719 83.019531 L 182.789062 78.335938 L 177.050781 80.15625 L 173.917969 75.476562 L 173.660156 81.199219 L 168.179688 82.757812 L 173.660156 84.578125 Z M 173.660156 90.300781 " fill-opacity="1" fill-rule="nonzero"/><path fill="#ffca00" d="M 202.09375 114.746094 L 198.703125 110.0625 L 198.703125 115.785156 L 193.222656 117.605469 L 198.703125 119.425781 L 198.703125 125.148438 L 202.09375 120.464844 L 207.570312 122.285156 L 204.179688 117.605469 L 207.570312 112.925781 Z M 202.09375 114.746094 " fill-opacity="1" fill-rule="nonzero"/><g fill="#000000" fill-opacity="1"><g transform="translate(56.323243, 305.292813)"><g><path d="M 22.757812 -17.320312 C 20.808594 -19.90625 17.695312 -21.59375 14.207031 -21.59375 L 11.695312 -21.59375 C 10.234375 -21.59375 9.035156 -22.792969 9.035156 -24.257812 L 9.035156 -24.519531 C 9.035156 -25.980469 10.234375 -27.179688 11.695312 -27.179688 L 15.296875 -27.179688 C 19.457031 -27.179688 22.832031 -30.667969 22.832031 -35.203125 L 11.695312 -35.203125 C 5.8125 -35.203125 1.011719 -30.40625 1.011719 -24.519531 L 1.011719 -24.257812 C 1.011719 -21.855469 1.800781 -19.644531 3.148438 -17.84375 C 5.097656 -15.257812 8.171875 -13.570312 11.695312 -13.570312 L 14.207031 -13.570312 C 15.632812 -13.570312 16.871094 -12.371094 16.871094 -10.945312 L 16.871094 -10.648438 C 16.871094 -9.222656 15.632812 -7.984375 14.207031 -7.984375 L 9.710938 -7.984375 C 5.546875 -7.984375 2.175781 -4.535156 2.175781 0 L 14.207031 0 C 20.09375 0 24.894531 -4.761719 24.894531 -10.648438 L 24.894531 -10.945312 C 24.894531 -13.308594 24.105469 -15.519531 22.757812 -17.320312 Z M 22.757812 -17.320312 "/></g></g></g><g fill="#000000" fill-opacity="1"><g transform="translate(81.850819, 305.292813)"><g><path d="M 23.09375 -34.042969 C 20.433594 -32.765625 18.59375 -30.21875 18.59375 -27.253906 L 18.59375 -8.324219 C 18.59375 -7.234375 17.734375 -6.296875 16.609375 -6.261719 C 16.609375 -6.261719 16.609375 -6.261719 16.570312 -6.261719 L 12.296875 -6.261719 C 11.695312 -6.261719 11.210938 -6.449219 10.871094 -6.785156 C 10.460938 -7.160156 10.234375 -7.6875 10.234375 -8.246094 L 10.234375 -27.253906 C 10.234375 -30.140625 8.472656 -32.691406 5.886719 -33.964844 C 4.6875 -34.566406 3.335938 -34.941406 1.875 -34.941406 L 1.875 -6.972656 C 1.875 -4.984375 2.699219 -3.148438 4.085938 -1.800781 C 4.238281 -1.648438 4.386719 -1.5 4.574219 -1.351562 C 5.960938 0.0390625 7.949219 0.710938 10.121094 0.898438 C 11.359375 1.011719 12.746094 1.085938 14.171875 1.085938 C 14.507812 1.085938 14.921875 1.085938 15.410156 1.085938 C 17.207031 1.085938 17.734375 1.011719 18.746094 0.898438 C 20.132812 0.789062 21.40625 0.414062 22.496094 -0.1875 C 25.15625 -1.5 26.957031 -4.050781 26.957031 -6.972656 L 26.957031 -34.941406 C 25.570312 -34.941406 24.257812 -34.605469 23.09375 -34.042969 Z M 23.09375 -34.042969 "/></g></g></g><g fill="#000000" fill-opacity="1"><g transform="translate(110.714604, 305.292813)"><g><path d="M 26.84375 -28.304688 C 26.242188 -29.878906 25.417969 -31.191406 24.292969 -32.242188 C 23.167969 -33.328125 21.855469 -34.117188 20.28125 -34.679688 C 18.707031 -35.242188 16.945312 -35.542969 14.996094 -35.542969 L 9.898438 -35.542969 C 6.074219 -35.542969 1.875 -31.90625 1.875 -27.441406 L 1.875 0 C 6.5625 0 10.386719 -4.386719 10.386719 -9.824219 L 10.386719 -10.121094 L 14.582031 -10.121094 C 16.457031 -10.121094 18.21875 -10.421875 19.832031 -10.945312 C 21.480469 -11.472656 22.871094 -12.296875 24.03125 -13.382812 C 25.195312 -14.472656 26.132812 -15.820312 26.769531 -17.394531 C 27.441406 -19.007812 27.742188 -20.84375 27.742188 -22.945312 L 27.742188 -23.019531 C 27.742188 -25.007812 27.441406 -26.769531 26.84375 -28.304688 Z M 19.269531 -22.496094 C 19.269531 -21.070312 18.820312 -19.945312 17.957031 -19.121094 C 17.097656 -18.257812 15.933594 -17.84375 14.394531 -17.84375 L 10.386719 -17.84375 L 10.386719 -27.292969 L 14.359375 -27.292969 C 15.894531 -27.292969 17.097656 -26.878906 17.957031 -26.09375 C 18.820312 -25.304688 19.269531 -24.144531 19.269531 -22.605469 Z M 19.269531 -22.496094 "/></g></g></g><g fill="#000000" fill-opacity="1"><g transform="translate(140.403066, 305.292813)"><g><path d="M 9.636719 -13.910156 L 17.734375 -13.910156 L 19.570312 -21.632812 L 9.636719 -21.632812 L 9.636719 -26.992188 L 17.171875 -26.992188 C 21.746094 -26.992188 24.78125 -30.703125 24.78125 -35.316406 L 9.558594 -35.316406 C 5.097656 -35.316406 1.460938 -31.679688 1.460938 -27.179688 L 1.460938 -7.949219 C 1.460938 -3.523438 4.984375 0 9.410156 0 L 14.847656 0 C 19.421875 0 22.980469 -3.710938 22.980469 -8.324219 L 9.636719 -8.324219 Z M 9.636719 -13.910156 "/></g></g></g><g fill="#000000" fill-opacity="1"><g transform="translate(166.680358, 305.292813)"><g><path d="M 21.40625 -11.773438 C 22.34375 -12.257812 23.167969 -12.820312 23.882812 -13.496094 C 25.082031 -14.582031 25.980469 -15.933594 26.65625 -17.546875 C 27.332031 -19.15625 27.628906 -21.03125 27.628906 -23.132812 L 27.628906 -23.246094 C 27.628906 -25.230469 27.332031 -26.992188 26.730469 -28.566406 C 26.132812 -30.140625 25.269531 -31.453125 24.144531 -32.542969 C 23.058594 -33.628906 21.667969 -34.417969 20.09375 -34.980469 C 18.519531 -35.542969 16.722656 -35.839844 14.808594 -35.839844 L 9.636719 -35.839844 C 5.773438 -35.839844 1.539062 -32.203125 1.539062 -27.707031 L 1.539062 0 C 6.261719 0 10.121094 -4.425781 10.121094 -9.933594 L 10.121094 -10.234375 L 13.648438 -10.234375 L 18.296875 -3.300781 C 20.65625 0.226562 24.894531 1.050781 28.417969 -1.3125 Z M 10.121094 -27.554688 L 14.132812 -27.554688 C 15.707031 -27.554688 16.910156 -27.144531 17.769531 -26.320312 C 18.632812 -25.53125 19.082031 -24.332031 19.082031 -22.792969 L 19.082031 -22.683594 C 19.082031 -21.257812 18.632812 -20.132812 17.769531 -19.269531 C 16.910156 -18.445312 15.707031 -17.996094 14.171875 -17.996094 L 10.121094 -17.996094 Z M 10.121094 -27.554688 "/></g></g></g><g fill="#000000" fill-opacity="1"><g transform="translate(196.368819, 305.292813)"><g><path d="M 26.84375 -28.304688 C 26.242188 -29.878906 25.417969 -31.191406 24.292969 -32.242188 C 23.167969 -33.328125 21.855469 -34.117188 20.28125 -34.679688 C 18.707031 -35.242188 16.945312 -35.542969 14.996094 -35.542969 L 9.898438 -35.542969 C 6.074219 -35.542969 1.875 -31.90625 1.875 -27.441406 L 1.875 0 C 6.5625 0 10.386719 -4.386719 10.386719 -9.824219 L 10.386719 -10.121094 L 14.582031 -10.121094 C 16.457031 -10.121094 18.21875 -10.421875 19.832031 -10.945312 C 21.480469 -11.472656 22.871094 -12.296875 24.03125 -13.382812 C 25.195312 -14.472656 26.132812 -15.820312 26.769531 -17.394531 C 27.441406 -19.007812 27.742188 -20.84375 27.742188 -22.945312 L 27.742188 -23.019531 C 27.742188 -25.007812 27.441406 -26.769531 26.84375 -28.304688 Z M 19.269531 -22.496094 C 19.269531 -21.070312 18.820312 -19.945312 17.957031 -19.121094 C 17.097656 -18.257812 15.933594 -17.84375 14.394531 -17.84375 L 10.386719 -17.84375 L 10.386719 -27.292969 L 14.359375 -27.292969 C 15.894531 -27.292969 17.097656 -26.878906 17.957031 -26.09375 C 18.820312 -25.304688 19.269531 -24.144531 19.269531 -22.605469 Z M 19.269531 -22.496094 "/></g></g></g><g fill="#000000" fill-opacity="1"><g transform="translate(226.057281, 305.292813)"><g><path d="M 27.03125 -32.09375 C 26.804688 -32.578125 26.429688 -33.066406 25.90625 -33.515625 C 24.480469 -34.902344 22.496094 -35.578125 20.355469 -35.765625 C 19.082031 -35.878906 15.371094 -35.953125 13.945312 -35.953125 C 12.410156 -35.953125 11.023438 -35.878906 9.671875 -35.765625 C 5.398438 -35.355469 1.875 -32.355469 1.875 -28.15625 L 1.875 -7.085938 C 1.875 -5.660156 2.285156 -4.3125 3 -3.1875 C 3.222656 -2.660156 3.597656 -2.210938 4.125 -1.761719 C 5.546875 -0.375 7.535156 0.300781 9.671875 0.488281 C 10.945312 0.601562 12.296875 0.675781 13.757812 0.675781 C 15.257812 0.675781 19.007812 0.636719 20.355469 0.488281 C 24.632812 0.113281 28.15625 -2.886719 28.15625 -7.085938 L 28.15625 -28.15625 C 28.15625 -29.582031 27.742188 -30.929688 27.03125 -32.09375 Z M 20.355469 -9.484375 C 20.171875 -8.324219 19.421875 -7.5 18.183594 -7.5 L 11.847656 -7.5 C 10.648438 -7.5 9.859375 -8.324219 9.671875 -9.484375 L 9.671875 -25.980469 C 9.859375 -27.144531 10.609375 -27.96875 11.847656 -27.96875 L 18.183594 -27.96875 C 19.421875 -27.96875 20.171875 -27.144531 20.355469 -25.945312 Z M 20.355469 -9.484375 "/></g></g></g><g fill="#000000" fill-opacity="1"><g transform="translate(256.158087, 305.292813)"><g><path d="M 23.769531 -27.628906 L 23.769531 -14.734375 L 9.523438 -35.277344 C 5.285156 -35.277344 1.875 -31.828125 1.875 -27.628906 L 1.875 0.1875 C 6.109375 0.1875 9.523438 -3.222656 9.523438 -7.460938 L 9.523438 -21.667969 L 23.769531 -2.585938 L 23.769531 0.1875 C 28.003906 0.1875 31.605469 -3.261719 31.605469 -7.5 L 31.605469 -35.277344 C 27.367188 -35.277344 23.769531 -31.828125 23.769531 -27.628906 Z M 23.769531 -27.628906 "/></g></g></g><g fill="#000000" fill-opacity="1"><g transform="translate(289.707555, 305.292813)"><g><path d="M 2.511719 -4.613281 C 3.035156 -3.488281 3.898438 -2.472656 4.910156 -1.6875 C 6.1875 -0.75 7.722656 -0.148438 9.449219 0 L 21.144531 0 C 24.257812 -0.5625 26.957031 -3.222656 26.957031 -6.824219 L 26.992188 -12.183594 C 26.992188 -14.472656 27.855469 -20.09375 22.121094 -20.09375 L 14.769531 -20.09375 C 14.769531 -16.382812 16.757812 -14.097656 19.90625 -13.535156 C 19.90625 -13.308594 19.871094 -13.046875 19.871094 -12.820312 L 19.871094 -7.5 L 11.882812 -7.5 C 10.683594 -7.5 9.933594 -8.285156 9.785156 -9.449219 L 9.785156 -22.570312 C 9.746094 -22.683594 9.746094 -22.832031 9.746094 -22.945312 L 9.746094 -25.34375 C 9.746094 -25.492188 9.746094 -25.605469 9.785156 -25.679688 C 9.933594 -26.769531 10.910156 -27.59375 11.960938 -27.707031 L 17.058594 -27.707031 L 17.058594 -26.804688 C 21.03125 -26.804688 23.582031 -29.582031 23.582031 -33.253906 L 23.582031 -35.242188 L 8.511719 -35.242188 C 4.574219 -35.015625 1.875 -32.128906 1.875 -27.707031 C 1.875 -27.707031 1.875 -27.667969 1.875 -27.628906 L 1.875 -7.609375 C 1.875 -6.523438 2.097656 -5.546875 2.511719 -4.613281 Z M 2.511719 -4.613281 "/></g></g></g></svg>