<?xml version="1.0" encoding="utf-8"?>
<!-- Generator: Adobe Illustrator 19.2.0, SVG Export Plug-In . SVG Version: 6.00 Build 0)  -->
<svg xmlns="http://www.w3.org/2000/svg" xmlns:xlink="http://www.w3.org/1999/xlink" version="1.1" id="controler" x="0px" y="0px" viewBox="0 0 223.435 208" enable-background="new 0 0 223.435 208" xml:space="preserve" width="512" height="512">
<g>
	<path fill="#c1a36b" d="M139.7175,112.1777c-4.4102,0-8,3.5898-8,8s3.5898,8,8,8s8-3.5898,8-8S144.1277,112.1777,139.7175,112.1777   z"/>
	<circle fill="#c1a36b" cx="163.7175" cy="76.1777" r="4"/>
	<path fill="#c1a36b" d="M55.7175,72.1777c-4.4102,0-8,3.5898-8,8s3.5898,8,8,8s8-3.5898,8-8S60.1277,72.1777,55.7175,72.1777z"/>
	<path fill="#c1a36b" d="M87.7175,112.1777v-8h-4v8c0,2.2109-1.7891,4-4,4h-8v4h8c2.2109,0,4,1.7891,4,4v8h4v-8   c0-2.2109,1.7891-4,4-4h8v-4h-8C89.5066,116.1777,87.7175,114.3887,87.7175,112.1777z"/>
	<path fill="#c1a36b" d="M196.4285,55.1738c-6.4688-2.5273-28.9922-10.9961-40.7109-10.9961   c-5.9062,0-12.8008,5.6406-19.4688,11.0977c-7.75,6.3438-15.7695,12.9023-24.5312,12.9023s-16.7812-6.5586-24.5312-12.9023   c-6.668-5.457-13.5625-11.0977-19.4688-11.0977c-11.7188,0-34.2422,8.4688-40.7109,10.9961   c-2.6836,9.1914-14.4336,50.1406-17.3242,71.5391c-1.8438,13.6367-1.6797,41.1484-1.6758,41.4258   c-0.0781,6.7227,1.5234,11.4258,4.2852,12.6562c2.7852,1.2344,7.3437-0.7305,12.2383-5.2422   c0.8281-0.9102,25.668-27.375,45.1875-27.375h84c19.5195,0,44.3555,26.4648,45.4023,27.5938   c4.7656,4.2383,9.3906,6.1758,12.125,4.9492c2.6797-1.2148,4.2422-5.8789,4.1836-12.4727   c0.0039-0.3398,0.168-27.8984-1.6758-41.5352C210.862,105.3105,199.112,64.3652,196.4285,55.1738z M39.7175,80.1777   c0-8.8242,7.1758-16,16-16s16,7.1758,16,16s-7.1758,16-16,16S39.7175,89.002,39.7175,80.1777z M107.7175,124.1777   c0,2.2109-1.7891,4-4,4h-8v8c0,2.2109-1.7891,4-4,4h-12c-2.2109,0-4-1.7891-4-4v-8h-8c-2.2109,0-4-1.7891-4-4v-12   c0-2.2109,1.7891-4,4-4h8v-8c0-2.2109,1.7891-4,4-4h12c2.2109,0,4,1.7891,4,4v8h8c2.2109,0,4,1.7891,4,4V124.1777z    M139.7175,136.1777c-8.8242,0-16-7.1758-16-16s7.1758-16,16-16s16,7.1758,16,16S148.5417,136.1777,139.7175,136.1777z    M151.7175,76.1777c0-6.6172,5.3828-12,12-12s12,5.3828,12,12s-5.3828,12-12,12S151.7175,82.7949,151.7175,76.1777z    M179.7175,112.1777c-6.6172,0-12-5.3828-12-12s5.3828-12,12-12s12,5.3828,12,12S186.3347,112.1777,179.7175,112.1777z"/>
	<circle fill="#c1a36b" cx="179.7175" cy="100.1777" r="4"/>
	<path fill="#181A1C" d="M103.7175,108.1777h-8v-8c0-2.2109-1.7891-4-4-4h-12c-2.2109,0-4,1.7891-4,4v8h-8c-2.2109,0-4,1.7891-4,4   v12c0,2.2109,1.7891,4,4,4h8v8c0,2.2109,1.7891,4,4,4h12c2.2109,0,4-1.7891,4-4v-8h8c2.2109,0,4-1.7891,4-4v-12   C107.7175,109.9668,105.9285,108.1777,103.7175,108.1777z M99.7175,120.1777h-8c-2.2109,0-4,1.7891-4,4v8h-4v-8   c0-2.2109-1.7891-4-4-4h-8v-4h8c2.2109,0,4-1.7891,4-4v-8h4v8c0,2.2109,1.7891,4,4,4h8V120.1777z"/>
	<path fill="#181A1C" d="M139.7175,104.1777c-8.8242,0-16,7.1758-16,16s7.1758,16,16,16s16-7.1758,16-16   S148.5417,104.1777,139.7175,104.1777z M139.7175,128.1777c-4.4102,0-8-3.5898-8-8s3.5898-8,8-8s8,3.5898,8,8   S144.1277,128.1777,139.7175,128.1777z"/>
	<path fill="#181A1C" d="M71.7175,80.1777c0-8.8242-7.1758-16-16-16s-16,7.1758-16,16s7.1758,16,16,16   S71.7175,89.002,71.7175,80.1777z M55.7175,88.1777c-4.4102,0-8-3.5898-8-8s3.5898-8,8-8s8,3.5898,8,8   S60.1277,88.1777,55.7175,88.1777z"/>
	<path fill="#181A1C" d="M175.7175,76.1777c0-6.6172-5.3828-12-12-12s-12,5.3828-12,12s5.3828,12,12,12   S175.7175,82.7949,175.7175,76.1777z M163.7175,80.1777c-2.207,0-4-1.793-4-4s1.793-4,4-4s4,1.793,4,4   S165.9245,80.1777,163.7175,80.1777z"/>
	<path fill="#181A1C" d="M179.7175,88.1777c-6.6172,0-12,5.3828-12,12s5.3828,12,12,12s12-5.3828,12-12   S186.3347,88.1777,179.7175,88.1777z M179.7175,104.1777c-2.207,0-4-1.793-4-4s1.793-4,4-4s4,1.793,4,4   S181.9245,104.1777,179.7175,104.1777z"/>
	<path fill="#181A1C" d="M221.6824,125.6426c-3.3359-24.6914-17.5273-72.5781-18.1289-74.6055   c-0.3477-1.1602-1.1992-2.1016-2.3203-2.5625c-1.2266-0.5-30.2383-12.2969-45.5156-12.2969   c-8.7617,0-16.7812,6.5586-24.5312,12.9023c-6.668,5.457-13.5625,11.0977-19.4687,11.0977s-12.8008-5.6406-19.4688-11.0977   c-7.75-6.3438-15.7695-12.9023-24.5312-12.9023c-15.2773,0-44.2891,11.7969-45.5156,12.2969   c-1.1211,0.4609-1.9727,1.4023-2.3203,2.5625c-0.6016,2.0273-14.793,49.9141-18.1289,74.6055   c-1.918,14.1992-1.7539,41.3984-1.7461,42.4766c-0.1602,13.8164,5.5898,18.4531,9.0312,19.9844   c1.2109,0.5391,2.8945,1.0312,5.0156,1.0312c3.9336,0,9.375-1.6914,16.1172-7.9141c6.4844-6.9648,26.2344-25.043,39.5469-25.043h84   c13.3125,0,33.0586,18.0781,39.8047,25.2969c10.3633,9.2695,17.6211,8.0703,21.0195,6.5312   c3.3711-1.5273,9.0117-6.1328,8.8867-19.7656C223.4363,167.0879,223.6003,139.8418,221.6824,125.6426z M215.4285,168.248   c0.0586,6.5938-1.5039,11.2578-4.1836,12.4727c-2.7344,1.2266-7.3594-0.7109-12.125-4.9492   c-1.0469-1.1289-25.8828-27.5938-45.4023-27.5938h-84c-19.5195,0-44.3594,26.4648-45.1875,27.375   c-4.8945,4.5117-9.4531,6.4766-12.2383,5.2422c-2.7617-1.2305-4.3633-5.9336-4.2852-12.6562   c-0.0039-0.2773-0.168-27.7891,1.6758-41.4258c2.8906-21.3984,14.6406-62.3477,17.3242-71.5391   c6.4688-2.5273,28.9922-10.9961,40.7109-10.9961c5.9062,0,12.8008,5.6406,19.4688,11.0977   c7.75,6.3438,15.7695,12.9023,24.5312,12.9023s16.7812-6.5586,24.5312-12.9023c6.668-5.457,13.5625-11.0977,19.4688-11.0977   c11.7188,0,34.2422,8.4688,40.7109,10.9961c2.6836,9.1914,14.4336,50.1367,17.3242,71.5391   C215.5964,140.3496,215.4324,167.9082,215.4285,168.248z"/>
</g>
<path fill="#FF5D5D" d="M15.9695,32c-1.0234,0-2.0479-0.3906-2.8281-1.1719c-1.5625-1.5615-1.5625-4.0947,0-5.6562l14.1426-14.1416  c1.5625-1.5625,4.0957-1.5625,5.6563,0c1.5625,1.5615,1.5625,4.0947,0,5.6562L18.7976,30.8281  C18.0163,31.6094,16.9929,32,15.9695,32z"/>
<path fill="#FF5D5D" d="M30.1121,32c-1.0234,0-2.0469-0.3906-2.8281-1.1719L13.1413,16.6865c-1.5625-1.5615-1.5625-4.0947,0-5.6562  c1.5605-1.5625,4.0937-1.5625,5.6562,0l14.1426,14.1416c1.5625,1.5615,1.5625,4.0947,0,5.6562  C32.1599,31.6094,31.1355,32,30.1121,32z"/>
<path fill="#181A1C" d="M81.9695,208c-7.7197,0-14-6.2803-14-14s6.2803-14,14-14s14,6.2803,14,14S89.6892,208,81.9695,208z   M81.9695,188c-3.3086,0-6,2.6914-6,6s2.6914,6,6,6s6-2.6914,6-6S85.2781,188,81.9695,188z"/>
<path fill="#FFC504" d="M155.2839,30.627c-1.0234,0-2.0469-0.3906-2.8281-1.1719l-11.3145-11.3135  c-0.75-0.75-1.1719-1.7676-1.1719-2.8281s0.4219-2.0781,1.1719-2.8281l11.3145-11.3135c1.5625-1.5625,4.0938-1.5625,5.6562,0  l11.3135,11.3135c1.5625,1.5615,1.5625,4.0947,0,5.6562L158.112,29.4551C157.3318,30.2363,156.3074,30.627,155.2839,30.627z   M149.6267,15.3135l5.6572,5.6572l5.6562-5.6572l-5.6562-5.6572L149.6267,15.3135z"/>
</svg>
