<svg xmlns="http://www.w3.org/2000/svg" xmlns:xlink="http://www.w3.org/1999/xlink" width="500" zoomAndPan="magnify" viewBox="0 0 375 374.999991" height="500" preserveAspectRatio="xMidYMid meet" version="1.0"><defs><clipPath id="a695a5225c"><path d="M 162 82.636719 L 307.394531 82.636719 L 307.394531 292.636719 L 162 292.636719 Z M 162 82.636719 " clip-rule="nonzero"/></clipPath><clipPath id="c6bac3b44f"><path d="M 114 82.636719 L 262 82.636719 L 262 292.636719 L 114 292.636719 Z M 114 82.636719 " clip-rule="nonzero"/></clipPath><clipPath id="7d72defd05"><path d="M 67.59375 82.636719 L 216 82.636719 L 216 292.636719 L 67.59375 292.636719 Z M 67.59375 82.636719 " clip-rule="nonzero"/></clipPath></defs><g clip-path="url(#a695a5225c)"><path fill="#c1a36b" d="M 307.230469 82.890625 L 307.394531 292.300781 L 162.050781 187.804688 Z M 307.230469 82.890625 " fill-opacity="1" fill-rule="nonzero"/></g><g clip-path="url(#c6bac3b44f)"><path fill="#c1a36b" d="M 258.367188 85.960938 L 117.417969 187.804688 L 258.449219 289.148438 L 258.367188 85.960938 M 258.367188 82.640625 C 258.863281 82.640625 259.363281 82.722656 259.859375 82.972656 C 260.9375 83.554688 261.683594 84.714844 261.683594 85.960938 L 261.765625 289.148438 C 261.765625 290.390625 261.105469 291.554688 259.941406 292.136719 C 259.445312 292.382812 258.945312 292.46875 258.449219 292.46875 C 257.785156 292.46875 257.121094 292.21875 256.539062 291.804688 L 115.511719 190.457031 C 114.679688 189.792969 114.101562 188.796875 114.101562 187.804688 C 114.101562 186.722656 114.597656 185.726562 115.511719 185.148438 L 256.375 83.304688 C 256.957031 82.890625 257.621094 82.640625 258.367188 82.640625 Z M 258.367188 82.640625 " fill-opacity="1" fill-rule="nonzero"/></g><g clip-path="url(#7d72defd05)"><path fill="#c1a36b" d="M 211.578125 86.125 L 70.714844 187.96875 L 211.742188 289.3125 L 211.578125 86.125 M 211.578125 82.804688 C 212.074219 82.804688 212.574219 82.890625 213.070312 83.136719 C 214.148438 83.71875 214.894531 84.882812 214.894531 86.125 L 215.0625 289.3125 C 215.0625 290.558594 214.398438 291.71875 213.238281 292.300781 C 212.738281 292.550781 212.242188 292.632812 211.742188 292.632812 C 211.078125 292.632812 210.414062 292.382812 209.835938 291.96875 L 68.804688 190.625 C 67.976562 189.960938 67.394531 188.964844 67.394531 187.96875 C 67.394531 186.890625 67.890625 185.894531 68.804688 185.3125 L 209.585938 83.46875 C 210.167969 83.054688 210.914062 82.804688 211.578125 82.804688 Z M 211.578125 82.804688 " fill-opacity="1" fill-rule="nonzero"/></g></svg>