<svg xmlns="http://www.w3.org/2000/svg" xmlns:xlink="http://www.w3.org/1999/xlink" width="500" zoomAndPan="magnify" viewBox="0 0 375 374.999991" height="500" preserveAspectRatio="xMidYMid meet" version="1.0"><defs><clipPath id="196d7bf825"><path d="M 67.59375 82.636719 L 213 82.636719 L 213 292.636719 L 67.59375 292.636719 Z M 67.59375 82.636719 " clip-rule="nonzero"/></clipPath><clipPath id="1e00e29e45"><path d="M 113 82.636719 L 261 82.636719 L 261 292.636719 L 113 292.636719 Z M 113 82.636719 " clip-rule="nonzero"/></clipPath><clipPath id="5d718f2c27"><path d="M 159 82.636719 L 307.59375 82.636719 L 307.59375 292.636719 L 159 292.636719 Z M 159 82.636719 " clip-rule="nonzero"/></clipPath></defs><g clip-path="url(#196d7bf825)"><path fill="#c1a36b" d="M 67.761719 82.890625 L 67.59375 292.300781 L 212.9375 187.804688 Z M 67.761719 82.890625 " fill-opacity="1" fill-rule="nonzero"/></g><g clip-path="url(#1e00e29e45)"><path fill="#c1a36b" d="M 116.621094 85.960938 L 257.570312 187.804688 L 116.539062 289.148438 L 116.621094 85.960938 M 116.621094 82.640625 C 116.125 82.640625 115.628906 82.722656 115.128906 82.972656 C 114.050781 83.554688 113.304688 84.714844 113.304688 85.960938 L 113.222656 289.148438 C 113.222656 290.390625 113.886719 291.554688 115.046875 292.136719 C 115.542969 292.382812 116.042969 292.46875 116.539062 292.46875 C 117.203125 292.46875 117.867188 292.21875 118.449219 291.804688 L 259.476562 190.457031 C 260.308594 189.792969 260.886719 188.796875 260.886719 187.804688 C 260.886719 186.722656 260.390625 185.726562 259.476562 185.148438 L 118.613281 83.304688 C 118.03125 82.890625 117.371094 82.640625 116.621094 82.640625 Z M 116.621094 82.640625 " fill-opacity="1" fill-rule="nonzero"/></g><g clip-path="url(#5d718f2c27)"><path fill="#c1a36b" d="M 163.410156 86.125 L 304.277344 187.96875 L 163.246094 289.3125 L 163.410156 86.125 M 163.410156 82.804688 C 162.914062 82.804688 162.414062 82.890625 161.917969 83.136719 C 160.839844 83.71875 160.09375 84.882812 160.09375 86.125 L 159.925781 289.3125 C 159.925781 290.558594 160.589844 291.71875 161.753906 292.300781 C 162.25 292.550781 162.746094 292.632812 163.246094 292.632812 C 163.910156 292.632812 164.574219 292.382812 165.152344 291.96875 L 306.183594 190.625 C 307.011719 189.960938 307.59375 188.964844 307.59375 187.96875 C 307.59375 186.890625 307.097656 185.894531 306.183594 185.3125 L 165.402344 83.46875 C 164.820312 83.054688 164.074219 82.804688 163.410156 82.804688 Z M 163.410156 82.804688 " fill-opacity="1" fill-rule="nonzero"/></g></svg>