<?xml version="1.0" encoding="UTF-8"?>
<svg xmlns="http://www.w3.org/2000/svg" xmlns:xlink="http://www.w3.org/1999/xlink" viewBox="0 0 100 100" width="100px" height="100px">
<g id="surface20478318">
<path style=" stroke:none;fill-rule:nonzero;fill:rgb(9.411765%,10.196079%,10.980392%);fill-opacity:1;" d="M 87.214844 56.710938 C 88.351562 54.554688 89 52.105469 89 49.5 C 89 42.878906 84.839844 37.242188 79 35.023438 C 79 35.015625 79 35.007812 79 35 C 79 23.402344 69.597656 14 58 14 C 48.214844 14 40.019531 20.699219 37.6875 29.757812 C 36.210938 29.273438 34.636719 29 33 29 C 25.308594 29 18.976562 34.792969 18.109375 42.253906 C 12.90625 43.351562 9 47.96875 9 53.5 C 9 59.851562 14.148438 65 20.5 65 C 20.675781 65 20.851562 64.988281 21.027344 64.976562 C 21.023438 65.152344 21 65.324219 21 65.5 C 21 76.820312 30.179688 86 41.5 86 C 47.9375 86 53.675781 83.027344 57.433594 78.386719 C 59.613281 80.609375 62.640625 82 66 82 C 70.648438 82 74.675781 79.351562 76.664062 75.480469 C 77.71875 75.816406 78.835938 76 80 76 C 86.074219 76 91 71.074219 91 65 C 91 61.6875 89.53125 58.726562 87.214844 56.710938 Z M 87.214844 56.710938 "/>
<path style=" stroke:none;fill-rule:nonzero;fill:rgb(100%,100%,100%);fill-opacity:1;" d="M 15.5 51 L 5.5 51 C 5.222656 51 5 50.777344 5 50.5 C 5 50.222656 5.222656 50 5.5 50 L 15.5 50 C 15.777344 50 16 50.222656 16 50.5 C 16 50.777344 15.777344 51 15.5 51 Z M 18.5 51 L 17.5 51 C 17.222656 51 17 50.777344 17 50.5 C 17 50.222656 17.222656 50 17.5 50 L 18.5 50 C 18.777344 50 19 50.222656 19 50.5 C 19 50.777344 18.777344 51 18.5 51 Z M 23.492188 53 L 14.5 53 C 14.222656 53 14 52.777344 14 52.5 C 14 52.222656 14.222656 52 14.5 52 L 23.492188 52 C 23.765625 52 23.992188 52.222656 23.992188 52.5 C 23.992188 52.777344 23.765625 53 23.492188 53 Z M 12.5 53 L 11.5 53 C 11.222656 53 11 52.777344 11 52.5 C 11 52.222656 11.222656 52 11.5 52 L 12.5 52 C 12.777344 52 13 52.222656 13 52.5 C 13 52.777344 12.777344 53 12.5 53 Z M 9.5 53 L 7.5 53 C 7.222656 53 7 52.777344 7 52.5 C 7 52.222656 7.222656 52 7.5 52 L 9.5 52 C 9.777344 52 10 52.222656 10 52.5 C 10 52.777344 9.777344 53 9.5 53 Z M 15.5 55 L 13.5 55 C 13.222656 55 13 54.777344 13 54.5 C 13 54.222656 13.222656 54 13.5 54 L 15.5 54 C 15.777344 54 16 54.222656 16 54.5 C 16 54.777344 15.777344 55 15.5 55 Z M 18.5 46 C 18.324219 46 17.675781 46 17.5 46 C 17.222656 46 17 46.222656 17 46.5 C 17 46.777344 17.222656 47 17.5 47 C 17.675781 47 18.324219 47 18.5 47 C 18.777344 47 19 46.777344 19 46.5 C 19 46.222656 18.777344 46 18.5 46 Z M 18.5 48 C 18.324219 48 13.675781 48 13.5 48 C 13.222656 48 13 48.222656 13 48.5 C 13 48.777344 13.222656 49 13.5 49 C 13.675781 49 18.324219 49 18.5 49 C 18.777344 49 19 48.777344 19 48.5 C 19 48.222656 18.777344 48 18.5 48 Z M 23.5 50 C 23.324219 50 20.675781 50 20.5 50 C 20.222656 50 20 50.222656 20 50.5 C 20 50.777344 20.222656 51 20.5 51 C 20.675781 51 23.324219 51 23.5 51 C 23.777344 51 24 50.777344 24 50.5 C 24 50.222656 23.777344 50 23.5 50 Z M 72.5 24 L 62.5 24 C 62.222656 24 62 23.777344 62 23.5 C 62 23.222656 62.222656 23 62.5 23 L 72.5 23 C 72.777344 23 73 23.222656 73 23.5 C 73 23.777344 72.777344 24 72.5 24 Z M 76.5 24 L 74.5 24 C 74.222656 24 74 23.777344 74 23.5 C 74 23.222656 74.222656 23 74.5 23 L 76.5 23 C 76.777344 23 77 23.222656 77 23.5 C 77 23.777344 76.777344 24 76.5 24 Z M 81.5 26 L 71.5 26 C 71.222656 26 71 25.777344 71 25.5 C 71 25.222656 71.222656 25 71.5 25 L 81.5 25 C 81.777344 25 82 25.222656 82 25.5 C 82 25.777344 81.777344 26 81.5 26 Z M 69.5 26 L 68.5 26 C 68.222656 26 68 25.777344 68 25.5 C 68 25.222656 68.222656 25 68.5 25 L 69.5 25 C 69.777344 25 70 25.222656 70 25.5 C 70 25.777344 69.777344 26 69.5 26 Z M 66.46875 26 L 64.5 26 C 64.222656 26 64 25.777344 64 25.5 C 64 25.222656 64.222656 25 64.5 25 L 66.46875 25 C 66.746094 25 66.96875 25.222656 66.96875 25.5 C 66.96875 25.777344 66.746094 26 66.46875 26 Z M 75.5 22 L 70.5 22 C 70.222656 22 70 21.777344 70 21.5 C 70 21.222656 70.222656 21 70.5 21 L 75.5 21 C 75.777344 21 76 21.222656 76 21.5 C 76 21.777344 75.777344 22 75.5 22 Z M 72.5 28 L 70.5 28 C 70.222656 28 70 27.777344 70 27.5 C 70 27.222656 70.222656 27 70.5 27 L 72.5 27 C 72.777344 27 73 27.222656 73 27.5 C 73 27.777344 72.777344 28 72.5 28 Z M 72.5 28 "/>
<path style=" stroke:none;fill-rule:nonzero;fill:rgb(28.235295%,65.882355%,16.862746%);fill-opacity:1;" d="M 51.273438 24.015625 C 43.207031 24.398438 37 31.347656 37 39.425781 L 37 47 L 43 47 L 43 39.308594 C 43 34.515625 46.617188 30.328125 51.402344 30.019531 C 56.644531 29.679688 61 33.832031 61 39 C 61 40.65625 62.34375 42 64 42 C 65.65625 42 67 40.65625 67 39 C 67 30.476562 59.890625 23.609375 51.273438 24.015625 Z M 51.273438 24.015625 "/>
<path style=" stroke:none;fill-rule:nonzero;fill:rgb(27.843139%,16.862746%,16.078432%);fill-opacity:1;" d="M 52 24 C 51.757812 24 51.519531 24.007812 51.273438 24.015625 C 43.207031 24.398438 37 31.347656 37 39.425781 L 37 47 L 43 47 L 43 39.308594 C 43 34.515625 46.617188 30.328125 51.402344 30.019531 C 51.601562 30.007812 51.800781 30 52 30 C 56.972656 30 61 34.027344 61 39 C 61 40.65625 62.34375 42 64 42 C 65.65625 42 67 40.65625 67 39 C 67 30.714844 60.285156 24 52 24 Z M 64 40.601562 C 63.117188 40.601562 62.398438 39.882812 62.398438 39 C 62.398438 33.265625 57.734375 28.601562 52 28.601562 C 51.773438 28.601562 51.542969 28.605469 51.308594 28.621094 C 45.863281 28.976562 41.597656 33.667969 41.597656 39.308594 L 41.597656 45.601562 L 38.398438 45.601562 L 38.398438 39.425781 C 38.398438 31.910156 44.082031 25.757812 51.339844 25.414062 C 51.5625 25.40625 51.78125 25.398438 52 25.398438 C 59.5 25.398438 65.601562 31.5 65.601562 39 C 65.601562 39.882812 64.882812 40.601562 64 40.601562 Z M 64 40.601562 "/>
<path style=" stroke:none;fill-rule:nonzero;fill:rgb(14.901961%,14.509805%,20.392157%);fill-opacity:1;" d="M 67.601562 45.5 L 36.398438 45.5 C 34.246094 45.5 32.5 47.226562 32.5 49.355469 L 32.5 62.855469 C 32.5 68.183594 36.863281 72.5 42.25 72.5 L 61.75 72.5 C 67.136719 72.5 71.5 68.183594 71.5 62.855469 L 71.5 49.355469 C 71.5 47.226562 69.753906 45.5 67.601562 45.5 Z M 67.601562 45.5 "/>
<path style=" stroke:none;fill-rule:nonzero;fill:rgb(28.235295%,65.882355%,16.862746%);fill-opacity:1;" d="M 33 50 L 71 50 L 71 56.5 L 33 56.5 Z M 33 50 "/>
<path style=" stroke:none;fill-rule:nonzero;fill:rgb(28.235295%,65.882355%,16.862746%);fill-opacity:1;" d="M 54 62 C 54 60.894531 53.105469 60 52 60 C 50.894531 60 50 60.894531 50 62 C 50 62.652344 50.316406 63.226562 50.800781 63.59375 L 50 68 L 54 68 L 53.199219 63.59375 C 53.683594 63.226562 54 62.652344 54 62 Z M 54 62 "/>
<path style=" stroke:none;fill-rule:nonzero;fill:rgb(27.843139%,16.862746%,16.078432%);fill-opacity:1;" d="M 68 45 L 36 45 C 33.789062 45 32 46.789062 32 49 L 32 63 C 32 68.523438 36.476562 73 42 73 L 62 73 C 67.523438 73 72 68.523438 72 63 L 72 49 C 72 46.789062 70.210938 45 68 45 Z M 70.601562 63 C 70.601562 67.742188 66.742188 71.601562 62 71.601562 L 42 71.601562 C 37.257812 71.601562 33.398438 67.742188 33.398438 63 L 33.398438 49 C 33.398438 47.566406 34.566406 46.398438 36 46.398438 L 68 46.398438 C 69.433594 46.398438 70.601562 47.566406 70.601562 49 Z M 70.601562 63 "/>
<path style=" stroke:none;fill-rule:nonzero;fill:rgb(27.843139%,16.862746%,16.078432%);fill-opacity:1;" d="M 71 50 L 67.5 50 C 67.222656 50 67 50.222656 67 50.5 C 67 50.777344 67.222656 51 67.5 51 L 71 51 C 71.277344 51 71.5 50.777344 71.5 50.5 C 71.5 50.222656 71.277344 50 71 50 Z M 64.5 51 L 62.5 51 C 62.222656 51 62 50.777344 62 50.5 C 62 50.222656 62.222656 50 62.5 50 L 64.5 50 C 64.777344 50 65 50.222656 65 50.5 C 65 50.777344 64.777344 51 64.5 51 Z M 59.5 51 L 33 51 C 32.722656 51 32.5 50.777344 32.5 50.5 C 32.5 50.222656 32.722656 50 33 50 L 59.5 50 C 59.777344 50 60 50.222656 60 50.5 C 60 50.777344 59.777344 51 59.5 51 Z M 71 57 L 33 57 C 32.722656 57 32.5 56.777344 32.5 56.5 C 32.5 56.222656 32.722656 56 33 56 L 71 56 C 71.277344 56 71.5 56.222656 71.5 56.5 C 71.5 56.777344 71.277344 57 71 57 Z M 52 60.351562 C 52.910156 60.351562 53.648438 61.089844 53.648438 62 C 53.648438 62.515625 53.410156 62.996094 52.988281 63.3125 C 52.882812 63.394531 52.832031 63.523438 52.855469 63.65625 L 53.578125 67.648438 L 50.417969 67.648438 L 51.144531 63.65625 C 51.167969 63.523438 51.117188 63.394531 51.011719 63.3125 C 50.589844 62.996094 50.351562 62.515625 50.351562 62 C 50.351562 61.089844 51.089844 60.351562 52 60.351562 M 52 60 C 50.894531 60 50 60.894531 50 62 C 50 62.652344 50.316406 63.226562 50.800781 63.59375 L 50 68 L 54 68 L 53.199219 63.59375 C 53.683594 63.226562 54 62.652344 54 62 C 54 60.894531 53.105469 60 52 60 Z M 52 60 "/>
<path style=" stroke:none;fill-rule:nonzero;fill:rgb(27.843139%,16.862746%,16.078432%);fill-opacity:1;" d="M 32.859375 56.398438 L 37.066406 50.394531 L 37.351562 50.597656 L 33.148438 56.597656 Z M 32.859375 56.398438 "/>
<path style=" stroke:none;fill-rule:nonzero;fill:rgb(27.843139%,16.862746%,16.078432%);fill-opacity:1;" d="M 36.648438 56.398438 L 40.855469 50.394531 L 41.144531 50.597656 L 36.9375 56.597656 Z M 36.648438 56.398438 "/>
<path style=" stroke:none;fill-rule:nonzero;fill:rgb(27.843139%,16.862746%,16.078432%);fill-opacity:1;" d="M 40.359375 56.398438 L 44.566406 50.394531 L 44.851562 50.597656 L 40.648438 56.601562 Z M 40.359375 56.398438 "/>
<path style=" stroke:none;fill-rule:nonzero;fill:rgb(27.843139%,16.862746%,16.078432%);fill-opacity:1;" d="M 44.148438 56.398438 L 48.355469 50.394531 L 48.640625 50.597656 L 44.433594 56.597656 Z M 44.148438 56.398438 "/>
<path style=" stroke:none;fill-rule:nonzero;fill:rgb(27.843139%,16.862746%,16.078432%);fill-opacity:1;" d="M 47.859375 56.398438 L 52.0625 50.394531 L 52.351562 50.597656 L 48.144531 56.597656 Z M 47.859375 56.398438 "/>
<path style=" stroke:none;fill-rule:nonzero;fill:rgb(27.843139%,16.862746%,16.078432%);fill-opacity:1;" d="M 51.648438 56.398438 L 55.855469 50.394531 L 56.140625 50.59375 L 51.9375 56.597656 Z M 51.648438 56.398438 "/>
<path style=" stroke:none;fill-rule:nonzero;fill:rgb(27.843139%,16.862746%,16.078432%);fill-opacity:1;" d="M 55.359375 56.398438 L 59.566406 50.394531 L 59.851562 50.59375 L 55.644531 56.597656 Z M 55.359375 56.398438 "/>
<path style=" stroke:none;fill-rule:nonzero;fill:rgb(27.843139%,16.862746%,16.078432%);fill-opacity:1;" d="M 59.148438 56.398438 L 63.355469 50.394531 L 63.640625 50.59375 L 59.4375 56.597656 Z M 59.148438 56.398438 "/>
<path style=" stroke:none;fill-rule:nonzero;fill:rgb(27.843139%,16.862746%,16.078432%);fill-opacity:1;" d="M 62.859375 56.398438 L 67.066406 50.394531 L 67.351562 50.59375 L 63.144531 56.597656 Z M 62.859375 56.398438 "/>
<path style=" stroke:none;fill-rule:nonzero;fill:rgb(27.843139%,16.862746%,16.078432%);fill-opacity:1;" d="M 66.648438 56.398438 L 70.855469 50.394531 L 71.140625 50.59375 L 66.9375 56.597656 Z M 66.648438 56.398438 "/>
<path style=" stroke:none;fill-rule:nonzero;fill:rgb(28.235295%,65.882355%,16.862746%);fill-opacity:1;" d="M 87 67.5 C 86.8125 67.5 86.636719 67.53125 86.453125 67.554688 C 86.234375 65.835938 84.78125 64.5 83 64.5 C 81.914062 64.5 80.953125 65.003906 80.3125 65.78125 C 80.421875 65.371094 80.5 64.945312 80.5 64.5 C 80.5 61.738281 78.261719 59.5 75.5 59.5 C 72.828125 59.5 70.667969 61.601562 70.527344 64.234375 C 69.703125 63.1875 68.4375 62.5 67 62.5 C 64.515625 62.5 62.5 64.515625 62.5 67 C 62.5 67.1875 62.53125 67.363281 62.554688 67.546875 C 60.28125 67.769531 58.5 69.667969 58.5 72 C 58.5 74.484375 60.515625 76.5 63 76.5 C 65.484375 76.5 70.125 76.5 70.125 76.5 L 77.5 76.5 C 77.5 76.5 84.515625 76.5 87 76.5 C 89.484375 76.5 91.5 74.484375 91.5 72 C 91.5 69.515625 89.484375 67.5 87 67.5 Z M 87 67.5 "/>
<path style=" stroke:none;fill-rule:nonzero;fill:rgb(27.843139%,16.862746%,16.078432%);fill-opacity:1;" d="M 87 67 C 86.953125 67 86.90625 67.003906 86.859375 67.003906 C 86.410156 65.261719 84.832031 64 83 64 C 82.289062 64 81.601562 64.191406 81 64.546875 C 81 64.53125 81 64.515625 81 64.5 C 81 61.46875 78.53125 59 75.5 59 C 72.945312 59 70.78125 60.761719 70.183594 63.164062 C 69.292969 62.414062 68.175781 62 67 62 C 64.242188 62 62 64.242188 62 67 C 62 67.039062 62 67.082031 62.003906 67.121094 C 59.6875 67.585938 58 69.601562 58 72 C 58 74.757812 60.242188 77 63 77 L 69.5 77 C 69.777344 77 70 76.777344 70 76.5 C 70 76.222656 69.777344 76 69.5 76 L 63 76 C 60.792969 76 59 74.207031 59 72 C 59 69.949219 60.550781 68.246094 62.605469 68.042969 C 62.738281 68.027344 62.859375 67.960938 62.945312 67.855469 C 63.027344 67.753906 63.066406 67.617188 63.050781 67.484375 L 63.03125 67.34375 C 63.015625 67.230469 63 67.117188 63 67 C 63 64.792969 64.792969 63 67 63 C 68.222656 63 69.363281 63.5625 70.132812 64.546875 C 70.230469 64.667969 70.375 64.738281 70.523438 64.738281 C 70.574219 64.738281 70.628906 64.730469 70.675781 64.714844 C 70.875 64.648438 71.015625 64.472656 71.027344 64.261719 C 71.152344 61.871094 73.117188 60 75.5 60 C 77.980469 60 80 62.019531 80 64.5 C 80 64.851562 79.945312 65.21875 79.832031 65.652344 C 79.769531 65.878906 79.875 66.117188 80.085938 66.226562 C 80.15625 66.265625 80.234375 66.28125 80.3125 66.28125 C 80.457031 66.28125 80.601562 66.21875 80.699219 66.101562 C 81.277344 65.402344 82.113281 65 83 65 C 84.496094 65 85.769531 66.125 85.960938 67.617188 C 85.992188 67.871094 86.207031 68.054688 86.453125 68.054688 C 86.476562 68.054688 86.496094 68.054688 86.515625 68.050781 L 86.65625 68.03125 C 86.769531 68.015625 86.882812 68 87 68 C 89.207031 68 91 69.792969 91 72 C 91 74.207031 89.207031 76 87 76 L 72.5 76 C 72.222656 76 72 76.222656 72 76.5 C 72 76.777344 72.222656 77 72.5 77 L 87 77 C 89.757812 77 92 74.757812 92 72 C 92 69.242188 89.757812 67 87 67 Z M 87 67 "/>
<path style=" stroke:none;fill-rule:nonzero;fill:rgb(27.843139%,16.862746%,16.078432%);fill-opacity:1;" d="M 84.0625 70 C 83.875 70 83.679688 70.023438 83.476562 70.066406 C 83.324219 68.898438 82.328125 68 81.125 68 C 80.699219 68 80.28125 68.117188 79.914062 68.339844 C 79.609375 67 78.402344 66 77 66 C 76.742188 66 76.484375 66.039062 76.179688 66.125 C 76.046875 66.164062 75.972656 66.300781 76.007812 66.433594 C 76.039062 66.542969 76.140625 66.617188 76.246094 66.617188 C 76.269531 66.617188 76.296875 66.613281 76.316406 66.605469 C 76.574219 66.535156 76.792969 66.5 77 66.5 C 78.289062 66.5 79.378906 67.511719 79.480469 68.804688 C 79.488281 68.898438 79.546875 68.980469 79.636719 69.015625 C 79.664062 69.03125 79.695312 69.035156 79.730469 69.035156 C 79.789062 69.035156 79.847656 69.015625 79.894531 68.972656 C 80.238281 68.667969 80.679688 68.5 81.125 68.5 C 82.160156 68.5 83 69.339844 83 70.375 C 83 70.453125 83.039062 70.535156 83.101562 70.582031 C 83.148438 70.617188 83.203125 70.636719 83.257812 70.636719 C 83.28125 70.636719 83.304688 70.632812 83.324219 70.628906 C 83.59375 70.542969 83.835938 70.5 84.0625 70.5 C 85.332031 70.5 86.394531 71.496094 86.480469 72.769531 C 86.492188 72.898438 86.601562 73 86.730469 73 C 86.738281 73 86.742188 73 86.75 73 C 86.886719 72.988281 86.988281 72.871094 86.980469 72.730469 C 86.871094 71.199219 85.589844 70 84.0625 70 Z M 63.117188 67.5 C 64.441406 67.5 65.625 68.398438 65.992188 69.683594 C 66.027344 69.816406 65.953125 69.953125 65.820312 69.992188 C 65.796875 69.996094 65.773438 70 65.75 70 C 65.640625 70 65.539062 69.929688 65.511719 69.816406 C 65.203125 68.746094 64.222656 68 63.117188 68 C 63 68 62.886719 68.015625 62.773438 68.027344 C 62.761719 68.03125 62.753906 68.03125 62.738281 68.03125 C 62.617188 68.03125 62.511719 67.941406 62.492188 67.816406 C 62.476562 67.679688 62.570312 67.550781 62.707031 67.535156 C 62.84375 67.515625 62.976562 67.5 63.117188 67.5 Z M 63.117188 67.5 "/>
<path style=" stroke:none;fill-rule:nonzero;fill:rgb(28.235295%,65.882355%,16.862746%);fill-opacity:1;" d="M 36.445312 60.546875 C 36.472656 60.367188 36.5 60.1875 36.5 60 C 36.5 58.066406 34.933594 56.5 33 56.5 C 31.96875 56.5 31.050781 56.953125 30.410156 57.664062 C 30.027344 55.855469 28.421875 54.5 26.5 54.5 C 24.289062 54.5 22.5 56.289062 22.5 58.5 C 22.5 58.691406 22.53125 58.875 22.554688 59.058594 C 22.128906 58.714844 21.59375 58.5 21 58.5 C 19.773438 58.5 18.753906 59.386719 18.546875 60.554688 C 18.367188 60.527344 18.1875 60.5 18 60.5 C 16.066406 60.5 14.5 62.066406 14.5 64 C 14.5 65.933594 16.066406 67.5 18 67.5 C 19.933594 67.5 25.5 67.5 25.5 67.5 L 32.5 67.5 C 32.5 67.5 34.066406 67.5 36 67.5 C 37.933594 67.5 39.5 65.933594 39.5 64 C 39.5 62.21875 38.164062 60.765625 36.445312 60.546875 Z M 36.445312 60.546875 "/>
<path style=" stroke:none;fill-rule:nonzero;fill:rgb(27.843139%,16.862746%,16.078432%);fill-opacity:1;" d="M 34.25 63 C 34.113281 63 34 62.886719 34 62.75 C 34 61.527344 34.996094 60.53125 36.21875 60.53125 C 36.253906 60.539062 36.953125 60.53125 37.460938 60.667969 C 37.59375 60.703125 37.675781 60.839844 37.636719 60.972656 C 37.601562 61.109375 37.464844 61.1875 37.332031 61.148438 C 36.886719 61.03125 36.230469 61.03125 36.21875 61.03125 C 35.269531 61.03125 34.5 61.804688 34.5 62.75 C 34.5 62.886719 34.386719 63 34.25 63 Z M 27.5 67 C 27.222656 67 27 67.222656 27 67.5 C 27 67.777344 27.222656 68 27.5 68 C 27.777344 68 28 67.777344 28 67.5 C 28 67.222656 27.777344 67 27.5 67 Z M 27.5 67 "/>
<path style=" stroke:none;fill-rule:nonzero;fill:rgb(27.843139%,16.862746%,16.078432%);fill-opacity:1;" d="M 36.996094 60.140625 C 37 60.09375 37 60.046875 37 60 C 37 57.792969 35.207031 56 33 56 C 32.15625 56 31.335938 56.277344 30.652344 56.773438 C 29.964844 55.128906 28.332031 54 26.5 54 C 24.125 54 22.175781 55.847656 22.011719 58.179688 C 21.6875 58.0625 21.347656 58 21 58 C 19.710938 58 18.589844 58.820312 18.175781 60.007812 C 18.117188 60.003906 18.058594 60 18 60 C 15.792969 60 14 61.792969 14 64 C 14 66.207031 15.792969 68 18 68 L 25.5 68 C 25.777344 68 26 67.777344 26 67.5 C 26 67.222656 25.777344 67 25.5 67 L 18 67 C 16.347656 67 15 65.652344 15 64 C 15 62.347656 16.347656 61 18 61 C 18.160156 61 18.3125 61.023438 18.46875 61.050781 C 18.742188 61.089844 18.988281 60.910156 19.035156 60.644531 C 19.207031 59.691406 20.035156 59 21 59 C 21.449219 59 21.878906 59.15625 22.242188 59.449219 C 22.402344 59.574219 22.621094 59.558594 22.800781 59.457031 C 22.976562 59.355469 23.070312 59.121094 23.039062 58.917969 C 23.019531 58.78125 23 58.644531 23 58.5 C 23 56.570312 24.570312 55 26.5 55 C 28.140625 55 29.578125 56.164062 29.921875 57.769531 C 29.960938 57.953125 30.097656 58.097656 30.28125 58.148438 C 30.460938 58.199219 30.65625 58.140625 30.78125 58 C 31.363281 57.355469 32.148438 57 33 57 C 34.652344 57 36 58.347656 36 60 C 36 60.160156 35.976562 60.3125 35.953125 60.46875 C 35.929688 60.601562 35.964844 60.738281 36.046875 60.84375 C 36.128906 60.953125 36.246094 61.023438 36.382812 61.039062 C 37.875 61.230469 39 62.503906 39 64 C 39 65.652344 37.652344 67 36 67 L 32.5 67 C 32.222656 67 32 67.222656 32 67.5 C 32 67.777344 32.222656 68 32.5 68 L 36 68 C 38.207031 68 40 66.207031 40 64 C 40 62.167969 38.738281 60.589844 36.996094 60.140625 Z M 36.996094 60.140625 "/>
<path style=" stroke:none;fill-rule:nonzero;fill:rgb(27.843139%,16.862746%,16.078432%);fill-opacity:1;" d="M 30.5 67 C 30.339844 67 29.660156 67 29.5 67 C 29.222656 67 29 67.222656 29 67.5 C 29 67.777344 29.222656 68 29.5 68 C 29.660156 68 30.339844 68 30.5 68 C 30.777344 68 31 67.777344 31 67.5 C 31 67.222656 30.777344 67 30.5 67 Z M 30.5 67 "/>
</g>
</svg>
